<?xml version="1.0" encoding="utf-8"?>
<!-- Svg Vector Icons : http://www.onlinewebfonts.com/icon -->
<!DOCTYPE svg PUBLIC "-//W3C//DTD SVG 1.1//EN" "http://www.w3.org/Graphics/SVG/1.1/DTD/svg11.dtd">
<svg version="1.1" xmlns="http://www.w3.org/2000/svg" xmlns:xlink="http://www.w3.org/1999/xlink" x="0px" y="0px" viewBox="0 0 256 256" enable-background="new 0 0 256 256" xml:space="preserve">
<metadata> Svg Vector Icons : http://www.onlinewebfonts.com/icon </metadata>
<g><g><g><path fill="#000000" d="M101.7,17.1c-2,0.8-4.1,2.2-6.1,4.3c-4,4-5.6,8-5.6,14c-0.1,6.3,1.8,9.7,9.1,16.8c9.2,8.9,20.5,17.5,26.8,20.3c2.3,1,2.4,1,4.6,0c6.3-2.8,17.7-11.4,26.8-20.3c7.3-7.2,9.2-10.6,9.2-17.2c0-3.9-0.2-4.9-1.8-8.1c-2.2-4.5-6.1-8.2-10.4-9.8c-3.6-1.4-10.3-1.5-14.4-0.3c-5.5,1.6-10.2,6-11.1,10.3c-0.4,1.9-0.9,1.6-1.8-1.3c-0.9-2.8-4.5-6.3-8.2-8.1C114.4,15.6,106.1,15.3,101.7,17.1z"/><path fill="#000000" d="M86.2,76.1C44,78.6,9.9,115.4,10,158.3c0.1,42.6,34,78.9,76.2,81.6c20.2,1.3,38.8-4,54.6-15.6c5.9-4.3,14.7-13.4,18.7-19.1c19.3-28.2,20.1-63.5,2-91.5l-2.6-4l-2.5,0.3c-5,0.7-14.5,4.3-17.3,6.4c-1,0.8-0.9,1,2.1,4.9c9,11.8,13.6,28,12,42.5c-1.6,14.9-7.2,26.5-17.9,37.3c-5.8,5.7-9.2,8.3-15.6,11.5c-33.8,17.2-76.9-2.2-86.4-38.8c-7.1-27.7,5.4-56.3,30.4-69.8c7-3.8,18.6-7,25.2-7c2.3,0,2.6-0.2,6.7-4.5c4.4-4.6,10.3-9.6,14.4-12.4c2.9-1.9,2.7-2.1-4.6-3.3C98.3,75.9,93.5,75.7,86.2,76.1z"/><path fill="#000000" d="M157,76c-53.4,4.6-88.6,59.2-70.5,109.4c1.9,5.2,4.6,10.6,8.1,16.3c3.2,5.1,2.6,4.9,10,3c3.3-0.9,13.5-5.4,13.5-5.9c0-0.2-1.5-2.4-3.4-4.9c-17.9-24.2-15.3-57.9,6.2-79.3c7.5-7.5,14.5-11.8,24.1-15c6.8-2.2,12.8-3,21.3-2.6c15.7,0.7,29.8,6.8,41,17.8c20.2,19.9,23.5,52,7.7,76.4c-3.4,5.2-11,13-16.1,16.6c-8.6,6-19.4,9.9-29.4,10.8l-4.6,0.4l-5.9,5.9c-3.3,3.2-8,7.3-10.5,9.2c-5.3,3.8-5.5,3.6,3.9,5c8.1,1.2,21.6,0.8,28.7-0.8c16.2-3.7,29-10.8,40.5-22.4c12.4-12.4,19.4-25.2,23-42.3c1-4.7,1.2-7.7,1.3-15.5c0-11.1-0.8-16.8-3.9-26C230.1,96.2,194.8,72.8,157,76z"/></g></g></g>
</svg>